<?xml version="1.0" encoding="UTF-8" standalone="no"?>
<svg width="21px" height="21px" viewBox="0 0 21 21" version="1.1" xmlns="http://www.w3.org/2000/svg" xmlns:xlink="http://www.w3.org/1999/xlink">
    <!-- Generator: Sketch 3.8.3 (29802) - http://www.bohemiancoding.com/sketch -->
    <title>Group 7</title>
    <desc>Created with Sketch.</desc>
    <defs></defs>
    <g id="Milestone-2.5" stroke="none" stroke-width="1" fill="none" fill-rule="evenodd">
        <g id="Visual-Crafter-UI" transform="translate(-983.000000, -998.000000)">
            <g id="Group-6" transform="translate(957.000000, 741.000000)">
                <g id="Group-7" transform="translate(26.000000, 257.000000)">
                    <path d="M0,10.5 C0,4.70104687 4.70071875,0 10.5,0 C16.2992812,0 21,4.70104687 21,10.5 C21,16.2989531 16.2992812,21 10.5,21 C4.70071875,21 0,16.2989531 0,10.5" id="Path" fill="#73838C"></path>
                    <path d="M9.1875,15.09375 C9.21145312,15.09375 9.23589844,15.0930938 9.26017969,15.0917813 C9.63292969,15.0709453 9.97926562,14.8926094 10.2125625,14.6012344 L15.4625625,8.03873437 C15.6561562,7.79657812 15.75,7.50700781 15.75,7.21940625 C15.75,6.83435156 15.5815078,6.45307031 15.2574844,6.19401562 C15.0154922,6.00025781 14.7259219,5.90625 14.4378281,5.90625 C14.0529375,5.90625 13.6716562,6.07490625 13.4124375,6.39876563 L9.0785625,11.8162734 L7.49076562,10.2283125 C7.2345,9.97204688 6.89866406,9.84391406 6.56315625,9.84375 C6.22699219,9.84358594 5.89082812,9.97171875 5.6345625,10.2283125 C5.37813281,10.48425 5.25,10.8199219 5.25,11.1555937 C5.24967187,11.4917578 5.37780469,11.8279219 5.6345625,12.0841875 L8.2595625,14.7091875 C8.5063125,14.9561016 8.84050781,15.09375 9.1875,15.09375" id="Path" fill="#FFFFFF"></path>
                </g>
            </g>
        </g>
    </g>
</svg>
