<?xml version="1.0" encoding="UTF-8" standalone="no"?>
<svg width="32px" height="33px" viewBox="0 0 32 33" version="1.1" xmlns="http://www.w3.org/2000/svg" xmlns:xlink="http://www.w3.org/1999/xlink">
    <!-- Generator: Sketch 39.1 (31720) - http://www.bohemiancoding.com/sketch -->
    <title>Artboard</title>
    <desc>Created with Sketch.</desc>
    <defs></defs>
    <g id="-Errors-&amp;-Notices" stroke="none" stroke-width="1" fill="none" fill-rule="evenodd">
        <g id="Artboard" fill="#748490">
            <path d="M16.0000253,28.0000084 C17.1046507,28.0000084 18.0000259,27.1046332 18.0000259,26.0000078 C18.0000259,24.8953825 17.1046507,24.0000072 16.0000253,24.0000072 C14.8954,24.0000072 14.0000247,24.8953825 14.0000247,26.0000078 C14.0000247,27.1046332 14.8954,28.0000084 16.0000253,28.0000084 M16.0000253,22.0000066 C14.8954,22.0000066 14.0000247,21.1046314 14.0000247,20.000006 L14.0000247,10.000003 C14.0000247,8.89550268 14.8954,8.00000241 16.0000253,8.00000241 C17.1046507,8.00000241 18.0000259,8.89550268 18.0000259,10.000003 L18.0000259,20.000006 C18.0000259,21.1046314 17.1046507,22.0000066 16.0000253,22.0000066 M29.7012795,29.0515088 C29.3369043,29.6411339 28.6931542,30.000009 28.0000289,30.000009 L4.00002171,30.000009 C3.30677151,30.000009 2.66314631,29.6411339 2.2987712,29.0515088 C1.93427109,28.4617586 1.90114608,27.7256334 2.21114618,27.1056332 L14.2112748,3.10562594 C14.5498999,2.42800073 15.2425251,2.0000006 16.0000253,2.0000006 C16.7576506,2.0000006 17.4501508,2.42800073 17.7889009,3.10562594 L29.7889045,27.1056332 C30.0989046,27.7256334 30.0657796,28.4617586 29.7012795,29.0515088 M31.57778,26.2111329 L19.5777764,2.21112567 C18.9001512,0.856125258 17.5151508,0 16.0000253,0 C14.4848999,0 13.0998995,0.856125258 12.4222743,2.21112567 L0.422270637,26.2111329 C-0.19772955,27.4511333 -0.13135453,28.9237587 0.59739569,30.1028841 C1.32627091,31.2822594 2.6136463,32.0000096 4.00002171,32.0000096 L28.0000289,32.0000096 C29.3862794,32.0000096 30.6737797,31.2822594 31.402655,30.1028841 C32.1314052,28.9237587 32.1976552,27.4511333 31.57778,26.2111329" id="Page-1-Copy-3"></path>
        </g>
    </g>
</svg>